<svg xmlns="http://www.w3.org/2000/svg" viewBox="0 0 1138.05 150.69"><defs><style>.a{fill:#fdb71c;}.b{fill:#072b49;}</style></defs><title>Artboard 1</title><path class="a" d="M94.93,26.38c5.07-5.42,12.6-7.44,20.49-6.69l0,.31a33.54,33.54,0,0,0-15,9.58,46.82,46.82,0,0,0-10.5,17.93C87.93,36.48,91.55,30,94.93,26.38Zm-40-3.95,0,.31c3.48,1.29,19.69,8.4,26.83,35.11C82.13,59.4,82.93,60,84,60c1.7,0,2.43-1.26,2.43-3.59,0-12.47-6.74-23.5-12.75-28.33S59.7,22.08,54.94,22.43ZM31.45,7C29.3,7,28.11,8.1,28.11,9.69c0,2,1.26,3,3.83,4,7.72,3.15,22.47,5.06,39.15,5.07,29.54,0,59.69-4.2,73-9.59L144,8.86c-10.86.71-29.58,2-59.48,2C43.8,10.82,35.25,7,31.45,7Zm3,41.65c-.79,1.42-3.2,3.56-7.55,3.56-5.34,0-9.73-4.38-9.73-10.64,0-5.62,4.92-11.36,13.69-11.36,21.68,0,47.13,31.18,47.45,70.9a95.19,95.19,0,0,1-.59,10.52l.37.08a89.16,89.16,0,0,0,4.15-24.92c0-34.62-23.65-67.9-51.55-67.9-16.53,0-24.93,11-24.93,20.62,0,10.93,6.44,19.24,16.48,19.24C30.05,58.73,34.4,53,34.4,48.63Zm99.47-6.91c-1.46.26-3.52,2.48-3.52,5.79,0,3.8,2.79,11.41,13.59,11.41,11.13,0,18.67-8.28,18.67-19.62,0-11.11-8.11-21.38-25.93-21.38-21.21,0-48.47,18.92-48.47,64.95a144.89,144.89,0,0,0,3.2,28.75h.37C91.77,55,113,28.38,135.9,28.38c9.82,0,15.19,6.22,15.19,12.73,0,5.94-3.56,10.22-9.17,10.22C134.95,51.33,132.81,45.36,133.87,41.72ZM88.3,119.13c-9.79,0-23.28,2.56-33.28,8.9l.12.33a235.6,235.6,0,0,1,31.13-2.23c13.63,0,21.45,2.23,23.52,2.23a2.34,2.34,0,0,0,2.57-2.63C112.37,121.16,100.92,119.13,88.3,119.13Zm0,12.09c-11.5,0-23.48,2.73-33.28,8.9l.12.33a216.34,216.34,0,0,1,30.63-2.07c15.73,0,21.4,2.07,24,2.07a2.34,2.34,0,0,0,2.57-2.63C112.37,133.25,100.92,131.22,88.3,131.22ZM134.6,76.8c-19.26,0-26.32,32.35-22.41,43.57h.24c2.26-16.4,11.1-34.69,23.1-34.69,6.45,0,8.2,4,8.45,5.77C148.09,87.09,145.63,76.8,134.6,76.8Zm-.77-4.8a9.81,9.81,0,0,0,1.7-5.37c0-5.1-4.75-10-11.77-10-20.36,0-27.92,35.63-22.08,58.35H102c2-31.21,12-48,23.42-48C131.28,67,133.33,70.54,133.83,72ZM57.12,120.36a33,33,0,0,0,1-8.5c0-13.29-8-35.17-23.34-35.17-11.68,0-13.29,11.16-9.56,14.73a8.33,8.33,0,0,1,8.11-5.83c12.33,0,21.57,19.49,23.46,34.76ZM44.18,67.26c11.68,0,21.88,18.79,23.61,48l.34,0A63.05,63.05,0,0,0,70.3,97c0-21.29-10.06-40.14-23.59-40.14C34,56.85,32.91,67.38,36,72,37.15,70.38,39.4,67.26,44.18,67.26Z"/><path class="b" d="M193.93,71.37h-8.32v-5.8h19.88v5.8l35,38.36V71.37h-8.78v-5.8h24.43v5.8h-8.58v56.28h-6.46L200.88,84.31v37.52h8.56v5.81H185.61v-5.81h8.32Z"/><path class="b" d="M271,105.33c0-10.43,3.5-18.4,11.62-18.4,7.54,0,11.49,7,11.49,19.07,0,11.38-4.48,18.1-11.49,18.1C275.27,124.1,271,117.19,271,105.33Zm-13.31.24c0,9.65,6.41,23.33,24.93,23.33,17.28,0,24.75-12.34,24.75-23.33,0-11.51-8.19-23.45-24.65-23.45C264.62,82.12,257.65,95.21,257.65,105.57Z"/><path class="b" d="M318.61,88.15h-7.77V83.37h19.7v7.47h.19a29.5,29.5,0,0,1,5.41-6.44,8.4,8.4,0,0,1,5.49-2.29c2.16,0,5.17,1.91,7.15,4.39A34.07,34.07,0,0,1,344.42,99c-2.48-4.56-4.53-6.33-7.46-6.33-2.48,0-3.74,1.35-6.41,4.37v25.81h7.65v4.76H310.84v-4.76h7.77Z"/><path class="b" d="M351.6,89.21l18.55-17.84v12h12.44v5.84H370.15v25.3c0,5.67,2,9.59,5.9,9.59,3.52,0,5.69-3.3,7.37-3.3a1.19,1.19,0,0,1,1.34,1.3c0,2.13-4,6.8-13.15,6.8s-13.38-4.68-13.38-14.94V89.21Z"/><path class="b" d="M408.31,88.67c5.48-3.93,11.09-6.55,15.75-6.55,7.06,0,12.22,5.52,12.22,13.09v27.68h7.77v4.76H418v-4.76h6.4V97.59c0-5.19-2.4-8-6.73-8-2.47,0-5.8,1.34-9.32,3.59v29.68h6.34v4.76H388.51v-4.76h7.87V64.21h-7.87V59.43h19.8Z"/><path class="b" d="M440.82,88.15V83.37H465.3v4.78h-6l9.95,22.18,8.18-22.18h-6.22V83.37H493.8v4.78h-5.7l10,22.18,8.18-22.18h-6.74V83.37h18.24v4.78h-6.24l-15.32,40.43H493.8l-14.64-31.4-11.82,31.4h-2L446.52,88.15Z"/><path class="b" d="M531.84,97.89c.11-5.49,2.47-11,7.35-11,4.29,0,7.28,3.91,8.21,11Zm27.89,4.79c-1.37-12.55-9.23-20.56-20.24-20.56-12,0-20.3,9.24-20.3,22.5,0,10.48,5.49,24.28,23.84,24.28a30.62,30.62,0,0,0,16.69-4.56l.82-5.82c-3.42,2.69-9.44,4.59-14.08,4.59-8.82,0-14.63-8.32-14.63-20.42Z"/><path class="b" d="M567.57,114.6h3c1.87,6,5.9,9.5,11,9.5,3.42,0,6.12-1.72,6.12-5.26,0-7.16-20.54-9.11-20.54-23.12,0-7.69,6.53-13.61,15-13.61a14.74,14.74,0,0,1,8.5,2.62l.83-2.28h3.33V94.28H591.5c-1.86-5.3-4-7.34-8.07-7.34-3.74,0-6.12,1.65-6.12,4.24,0,9,21,8.89,21,23.93,0,8.21-6.52,13.8-15.74,13.8a23.6,23.6,0,0,1-10.89-2.6l-.52,2.08h-3.61Z"/><path class="b" d="M601.45,89.21,620,71.37v12h12.43v5.84H620v25.3c0,5.67,2,9.59,5.9,9.59,3.53,0,5.7-3.3,7.36-3.3a1.2,1.2,0,0,1,1.36,1.3c0,2.13-4.05,6.8-13.16,6.8s-13.4-4.68-13.4-14.94V89.21Z"/><path class="b" d="M649.11,97.89c.13-5.49,2.47-11,7.35-11,4.25,0,7.26,3.91,8.19,11ZM677,102.68c-1.33-12.55-9.19-20.56-20.17-20.56-12,0-20.34,9.24-20.34,22.5,0,10.48,5.5,24.28,23.84,24.28A30.41,30.41,0,0,0,677,124.34l.87-5.82c-3.44,2.69-9.46,4.59-14.11,4.59-8.82,0-14.61-8.32-14.61-20.42Z"/><path class="b" d="M690.08,88.15h-7.77V83.37H702v7.47h.18a29.65,29.65,0,0,1,5.43-6.44,8.37,8.37,0,0,1,5.49-2.29c2.16,0,5.15,1.91,7.1,4.39A33.21,33.21,0,0,1,715.88,99c-2.48-4.56-4.56-6.33-7.46-6.33-2.48,0-3.72,1.35-6.41,4.37v25.81h7.67v4.76H682.31v-4.76h7.77Z"/><path class="b" d="M732.66,88.15H724.9V83.37h19.7v5.39c5.88-4,10.15-6.64,15.64-6.64,7.79,0,12.33,5.12,12.33,13.61v27.17h7.76v4.76H754.24v-4.76h6.44V96.45c0-4.46-3-6.83-6.34-6.83-2.9,0-5.69,1-9.74,3.51v29.76h6.19v4.76H724.9v-4.76h7.76Z"/><path class="b" d="M815.26,71.37h-8.37v-5.8h22.6v5.8l17.73,36.57,17.41-36.57v-5.8H888v5.8h-8.32v50.46H888v5.81H858.41v-5.81h8.7V82.67h-.21l-21.24,45h-2.39L822.52,84.41h-.18v37.43h8.4v5.81H806.88v-5.81h8.37Z"/><path class="b" d="M944.2,122.89v4.76H924.52v-4.24c-5.82,4-11,5.49-15.24,5.49-9.74,0-12.66-5.94-12.66-12.46V88.15h-7.77V83.37h19.71v32.15c0,4.14,2.15,7.15,6,7.15,2.7,0,5.51-1.16,10-3.83V88.15h-7.67V83.37h19.58v39.52Z"/><path class="b" d="M945.26,89.21l18.54-17.84v12h12.44v5.84H963.79v25.3c0,5.67,2,9.59,5.92,9.59,3.53,0,5.69-3.3,7.36-3.3a1.18,1.18,0,0,1,1.32,1.3c0,2.13-4,6.8-13.14,6.8s-13.39-4.68-13.39-14.94V89.21Z"/><path class="b" d="M1035.54,122.89v4.76h-19.69v-4.24c-5.82,4-11,5.49-15.25,5.49-9.74,0-12.65-5.94-12.65-12.46V88.15h-7.77V83.37h19.73v32.15c0,4.14,2.16,7.15,6,7.15,2.69,0,5.48-1.16,9.95-3.83V88.15h-7.67V83.37h19.61v39.52Z"/><path class="b" d="M1060.93,107.87v10.65c-2.16,1.77-4.58,2.93-6.41,2.93-2.68,0-4.78-2.41-4.78-5.42C1049.74,112,1052.12,109.92,1060.93,107.87Zm20.46,13.46a7.23,7.23,0,0,1-3.36.83c-2.68,0-5.19-2.07-5.19-5.72V96.78c0-8.48-6.3-14.66-14.91-14.66-5.82,0-12.66,3-17.86,7.59l.85,3.62c5.29-3.2,8.91-4.44,12.32-4.44,5,0,7.67,3,7.67,8.7v5.18l-10.66,2.68c-8.07,2.08-11.51,5.43-11.51,11.41,0,6.95,4.33,12,10.35,12,4,0,7.79-1.67,12.85-5.49a9.47,9.47,0,0,0,9,5.49,19.27,19.27,0,0,0,10.43-3.11Z"/><path class="b" d="M1092.37,64.21h-7.69V59.43h19.61v63.45h7.65v4.76h-27.25v-4.76h7.69Z"/><path class="b" d="M1122.43,59.53a7.85,7.85,0,1,1-7.83,7.87A7.86,7.86,0,0,1,1122.43,59.53Zm0,14.3a6.45,6.45,0,1,0-6.43-6.43A6.44,6.44,0,0,0,1122.43,73.83Zm-1.53-2.25h-1.79V63.18H1123c.49,0,3.19,0,3.19,2.52a2.26,2.26,0,0,1-1.57,2.24l1.57,3.65h-1.91L1123,68.24h-2.05Zm0-4.75h1.85c.61,0,1.61-.15,1.61-1.17,0-.5-.35-1.11-1.44-1.11h-2Z"/></svg>